<svg xmlns="http://www.w3.org/2000/svg" viewBox="0 0 500 500" width="500" height="500"><defs><linearGradient id="hexGradient_1767646651560" x1="0%" y1="50%" x2="100%" y2="50%"><stop offset="0%" style="stop-color:#3D6BC6;stop-opacity:1"/><stop offset="100%" style="stop-color:#5B8FED;stop-opacity:1"/></linearGradient></defs><g id="wheel"><circle cx="250" cy="250" r="180" fill="#17b8bd" stroke="none"/><g><line x1="430" y1="250" x2="460" y2="250" stroke="#17b8bd" stroke-width="25" stroke-linecap="round"/><circle cx="460" cy="250" r="12.5" fill="#17b8bd"/></g><g><line x1="377.27922061357856" y1="377.27922061357856" x2="398.492424049175" y2="398.49242404917493" stroke="#17b8bd" stroke-width="25" stroke-linecap="round"/><circle cx="398.492424049175" cy="398.49242404917493" r="12.5" fill="#17b8bd"/></g><g><line x1="250" y1="430" x2="250" y2="460" stroke="#17b8bd" stroke-width="25" stroke-linecap="round"/><circle cx="250" cy="460" r="12.5" fill="#17b8bd"/></g><g><line x1="122.72077938642146" y1="377.27922061357856" x2="101.50757595082504" y2="398.492424049175" stroke="#17b8bd" stroke-width="25" stroke-linecap="round"/><circle cx="101.50757595082504" cy="398.492424049175" r="12.5" fill="#17b8bd"/></g><g><line x1="70" y1="250.00000000000003" x2="40" y2="250.00000000000003" stroke="#17b8bd" stroke-width="25" stroke-linecap="round"/><circle cx="40" cy="250.00000000000003" r="12.5" fill="#17b8bd"/></g><g><line x1="122.72077938642141" y1="122.72077938642146" x2="101.50757595082499" y2="101.50757595082504" stroke="#17b8bd" stroke-width="25" stroke-linecap="round"/><circle cx="101.50757595082499" cy="101.50757595082504" r="12.5" fill="#17b8bd"/></g><g><line x1="249.99999999999997" y1="70" x2="249.99999999999997" y2="40" stroke="#17b8bd" stroke-width="25" stroke-linecap="round"/><circle cx="249.99999999999997" cy="40" r="12.5" fill="#17b8bd"/></g><g><line x1="377.2792206135785" y1="122.72077938642141" x2="398.49242404917493" y2="101.50757595082499" stroke="#17b8bd" stroke-width="25" stroke-linecap="round"/><circle cx="398.49242404917493" cy="101.50757595082499" r="12.5" fill="#17b8bd"/></g><circle cx="250" cy="250" r="25" fill="#17b8bd"/></g><path d="M 260.8253175473055 103.25 L 371.67656923171364 167.25 Q 382.5018867790191 173.5 382.5018867790191 186 L 382.5018867790191 314 Q 382.5018867790191 326.5 371.67656923171364 332.75 L 260.8253175473055 396.75 Q 250 403 239.17468245269453 396.75 L 128.32343076828636 332.75 Q 117.49811322098088 326.5 117.49811322098088 314 L 117.49811322098088 186 Q 117.49811322098088 173.5 128.32343076828636 167.25 L 239.17468245269453 103.25 Q 250 97 260.8253175473055 103.25 Z" fill="url(#hexGradient_1767646651560)" stroke="#FFFFFF" stroke-width="12"/><g id="phone"><rect x="201.76196875" y="164.24349999999998" width="96.4760625" height="171.513" rx="11.475" fill="#FFFFFF"/><rect x="210.17696875" y="181.0735" width="79.6460625" height="137.85299999999998" rx="5.7375" fill="#4a7fdd"/><rect x="236.23" y="170.74599999999998" width="27.54" height="3.825" rx="1.9125" fill="#4a7fdd"/><circle cx="250" cy="327.34149999999994" r="5.7375" fill="#4a7fdd"/></g></svg>